# xmcd CD database file
#
# Track frame offsets:
#	150
#	20630
#	34430
#	54330
#	70950
#	92366
#	108697
#	127847
#	147720
#	169284
#	188975
#	204434
#	227542
#	246410
#	265091
#	284506
#	303036
#	320851
#	340186
#
# Disc length: 4718 seconds
#
# Revision: 1
# Processed by: cddbd v1.5.2PL0 Copyright (c) Steve Scherf et al.
# Submitted via: CDex 1.51
#
DISCID=20126c13
DTITLE=Various Artist - ZM-SH80's-CD-1
DYEAR=1900
DGENRE=Blues
TTITLE0=Feargal Sharkey - A Good Heart
TTITLE1=Jam The - A Town Called Malice
TTITLE2=Lionel Richie - All Night Long
TTITLE3=Blondie - Call Me
TTITLE4=George Michael - Careless Whisper
TTITLE5=Diana Ross - Chain Reaction
TTITLE6=Dexy's Midnight Runners - Come On Eileen
TTITLE7=Meat Loaf - Dead Ringer For Love
TTITLE8=Communards The - Don't Leave Me This Way
TTITLE9=Human League - Don't You Want Me
TTITLE10=Men At Work - Down Under
TTITLE11=Philip Bailey and Phil Collins - Easy Lover
TTITLE12=Police The - Every Little Thing She Does Is Magic
TTITLE13=Survivor - Eye Of The Tiger
TTITLE14=Irene Cara - Fame
TTITLE15=Sister Sledge - Frankie
TTITLE16=Cyndi Lauper - Girls Just Want Have Fun
TTITLE17=Belinda Carlisle - Heaven Is A Place On Earth
TTITLE18=Madness - House Of Fun
EXTD=
EXTT0=
EXTT1=
EXTT2=
EXTT3=
EXTT4=
EXTT5=
EXTT6=
EXTT7=
EXTT8=
EXTT9=
EXTT10=
EXTT11=
EXTT12=
EXTT13=
EXTT14=
EXTT15=
EXTT16=
EXTT17=
EXTT18=
PLAYORDER=
